<svg width="32" height="32" viewBox="0 0 32 32" fill="none" xmlns="http://www.w3.org/2000/svg">
<path d="M4.06452 12.75C2.83871 12.125 1.6129 12.75 1.6129 12.75L1 14.625L2.22581 15.875L2.83871 17.125C2.83871 17.125 2.67527 19.625 5.73979 21.5V24H18.7742V21.5C18.7742 18.1176 19.9591 19.2941 19.9591 16.9412L20 12.125C20 12.125 20 9.88235 16.4043 10.875C16.4043 10.875 16.4043 8.70588 12.8495 9.625C12.8495 9.625 12.8495 7.52941 9.29463 8.6875V5.25C9.29463 5.25 8.79809 4 7.51721 4C6.23632 4 5.73979 5.25 5.73979 5.25V14L4.06452 12.75Z" fill="#FEDFFF"/>
<path d="M7.51721 4C6.23632 4 5.73979 5.25 5.73979 5.25V14L4.06452 12.75C2.83871 12.125 1.6129 12.75 1.6129 12.75L1 14.625L2.22581 15.875L2.83871 17.125C2.83871 17.125 2.67527 19.625 5.73979 21.5V24H18.7742V21.5C18.7742 18.1176 19.9591 19.2941 19.9591 16.9412L20 12.125C20 12.125 20 9.88235 16.4043 10.875M7.51721 4C8.79809 4 6.23632 4 7.51721 4ZM7.51721 4C8.79809 4 9.29462 5.25 9.29462 5.25V8.6875M9.29462 12.75V8.6875M9.29462 8.6875C12.8495 7.52941 12.8495 9.625 12.8495 9.625M12.8495 9.625V12.75M12.8495 9.625C16.4043 8.70588 16.4043 10.875 16.4043 10.875M16.4043 10.875V14" stroke="black" stroke-width="1.5" stroke-linecap="round" stroke-linejoin="round"/>
</svg>
