<svg width="128" height="128" viewBox="0 0 128 128" fill="none" xmlns="http://www.w3.org/2000/svg">
<g clip-path="url(#clip0_403_6)">
<path fill-rule="evenodd" clip-rule="evenodd" d="M119.5 8.49995C127.25 16.25 127 32 127 64C127 96 127.25 111.75 119.5 119.5C111.75 127.25 95.9999 127 63.9999 127C32.0011 127 16.251 127 8.50067 119.126C0.749695 111.251 0.99974 95.5012 0.999984 64C0.999991 63.0303 0.999762 62.0756 0.999536 61.1355C0.985073 1 0.985073 0.999942 64 0.999942C96 0.999942 111.75 0.749957 119.5 8.49995Z" fill="url(#paint0_linear_403_6)"/>
<path d="M18.69 103.88C17.2233 103.88 15.6467 103.77 13.96 103.55C12.3467 103.33 10.99 102.89 9.89 102.23C8.71667 101.497 8.13 100.47 8.13 99.15C8.13 95.9967 8.27667 93.6867 8.57 92.22C8.79 90.68 9.08333 89.69 9.45 89.25C9.81667 88.7367 10.11 88.48 10.33 88.48C11.1367 88.48 11.87 88.6633 12.53 89.03C13.2633 89.3233 14.84 89.47 17.26 89.47C20.56 89.47 23.0167 88.59 24.63 86.83C26.2433 84.9967 27.27 82.0633 27.71 78.03L32.88 29.3C33.1 26.9533 35.41 25.78 39.81 25.78H43.66C44.32 25.78 45.1633 25.8533 46.19 26C47.2167 26.0733 48.1333 26.3667 48.94 26.88C49.7467 27.32 50.0767 28.09 49.93 29.19L44.43 80.78C43.6967 87.7467 41.2767 93.3567 37.17 97.61C33.0633 101.79 26.9033 103.88 18.69 103.88ZM64.3778 103.22C62.0311 103.22 60.3811 102.927 59.4278 102.34C58.5478 101.753 58.1078 100.873 58.1078 99.7L65.4778 29.3C65.6978 26.9533 68.0078 25.78 72.4078 25.78H76.2578C78.6045 25.78 80.2178 26.0733 81.0978 26.66C82.0511 27.2467 82.5278 28.1267 82.5278 29.3L79.4478 58.78L79.8878 58.89L102.218 27.87C102.804 27.0633 103.684 26.5133 104.858 26.22C106.031 25.9267 107.424 25.78 109.038 25.78H114.208C118.241 25.78 120.258 26.2933 120.258 27.32C120.258 27.98 119.891 28.7867 119.158 29.74L94.5178 62.3L114.648 99.26C114.868 99.7 115.014 100.103 115.088 100.47C115.234 100.763 115.308 101.02 115.308 101.24C115.308 101.827 114.868 102.303 113.988 102.67C113.108 103.037 111.458 103.22 109.038 103.22H102.658C100.898 103.22 99.4678 103.073 98.3678 102.78C97.2678 102.487 96.5345 101.937 96.1678 101.13L78.8978 67.69L78.4578 67.8L75.1578 99.7C74.9378 102.047 72.6278 103.22 68.2278 103.22H64.3778Z" fill="url(#paint1_linear_403_6)"/>
</g>
<defs>
<linearGradient id="paint0_linear_403_6" x1="-85.5" y1="-8.5" x2="124.5" y2="102" gradientUnits="userSpaceOnUse">
<stop stop-color="#8B00BC"/>
<stop offset="1" stop-color="#05021F"/>
</linearGradient>
<linearGradient id="paint1_linear_403_6" x1="51" y1="37" x2="101" y2="103" gradientUnits="userSpaceOnUse">
<stop stop-color="#18D695"/>
<stop offset="1" stop-color="#18D695" stop-opacity="0.65"/>
</linearGradient>
<clipPath id="clip0_403_6">
<rect width="128" height="128" fill="white"/>
</clipPath>
</defs>
</svg>
